<svg xmlns="http://www.w3.org/2000/svg">
 <symbol id="upload" viewBox="0 0 228 228">
  <title>upload</title>
  <path d="M120.93,220h8.35V115.63h45L124.58,29,74.85,115.63h46.08ZM92.77,105.19,125,48.83l32.26,56.36Z"/>
  <path d="M11,125A114,114,0,1,0,125,11,114,114,0,0,0,11,125Zm218,0A104,104,0,1,1,125,21,104,104,0,0,1,229,125Z"/>
 </symbol>

 <symbol id="download" viewBox="0 0 228 228">
  <title>download</title>
  <path d="M120.93,134.37H74.85L124.58,221l49.73-86.63h-45V30h-8.35Zm36.37,10.44L125,201.17,92.77,144.81Z"/>
  <path d="M125,239A114,114,0,1,0,11,125,114,114,0,0,0,125,239Zm0-10A104,104,0,1,1,229,125,104,104,0,0,1,125,229Z"/>
 </symbol>

 <symbol id="past" viewBox="0 0 228 228">
  <title>past</title>
  <path d="M120.63,118.93V72.85L34,122.58l86.63,49.73v-45H225v-8.35ZM110.19,155.3,53.83,123l56.36-32.26Z" />
  <path d="M129,12A114,114,0,1,0,243,126,114,114,0,0,0,129,12Zm0,218A104,104,0,1,1,233,126,104,104,0,0,1,129,230Z"/>
 </symbol>
 
 <symbol id="future" viewBox="0 0 228 228">
  <title>future</title>
  <path d="M30,120.93v8.35H134.37v45L221,124.58,134.37,74.85v46.08ZM144.81,92.77,201.17,125,144.81,157.3Z"/>
  <path d="M125,11A114,114,0,1,0,239,125,114,114,0,0,0,125,11Zm0,218A104,104,0,1,1,229,125,104,104,0,0,1,125,229Z"/>
 </symbol>
 
 <symbol id="duration" viewBox="0 0 228 228">
  <title>duration</title>
  <g>
    <path d="M80.7,51.5,122,123,80.7,194.59h89L128.4,123,169.71,51.5ZM153.12,185H97.7l27.71-48Zm-27.71-76L97.7,61h55.43Z"/>
    <path d="M125,11A114,114,0,1,0,239,125,114,114,0,0,0,125,11Zm0,218A104,104,0,1,1,229,125,104,104,0,0,1,125,229Z"/>
  </g>
 </symbol>

 <symbol id="dress_code" viewBox="0 0 228 228">
  <title>dress_code</title>
  <path d="M53.66,80.54v89l71.54-41.31,71.54,41.31v-89L125.2,121.84Zm9.5,72V97.12l48,27.71Zm124-55.43v55.43l-48-27.71Z"/>
  <path d="M125,11A114,114,0,1,0,239,125,114,114,0,0,0,125,11Zm0,218A104,104,0,1,1,229,125,104,104,0,0,1,125,229Z"/>
 </symbol>

 <symbol id="rules" viewBox="0 0 228 228">
  <title>rules</title>
  <g>
    <path d="M169.71,53.5h-89l36.93,64-64-36.93v89l64-36.93-36.93,64h89l-36.93-64,64,36.93v-89l-64,36.93Zm-106.55,99V97.12l48,27.71Zm124-55.43v55.43l-48-27.71Zm-34,89.88H97.7l27.71-48Zm-27.71-76L97.7,63h55.43Z" />
    <path d="M125,11A114,114,0,1,0,239,125,114,114,0,0,0,125,11Zm0,218A104,104,0,1,1,229,125,104,104,0,0,1,125,229Z" />
  </g>
 </symbol>

 <symbol id="now_playing" viewBox="0 0 228 228">
  <title>now_playing</title>
  <path d="M89,63.58v123.7l107.13-61.85Zm11,18.7,75,43.3-75,43.3Z"/>
  <path d="M125,11A114,114,0,1,0,239,125,114,114,0,0,0,125,11Zm0,218A104,104,0,1,1,229,125,104,104,0,0,1,125,229Z"/>
 </symbol> 

 <symbol id="home" xmlns="http://www.w3.org/2000/svg" viewBox="0 0 228 228">
  <title>home</title>
  <path d="M125,11A114,114,0,1,0,239,125,114,114,0,0,0,125,11Zm0,218A104,104,0,1,1,229,125,104,104,0,0,1,125,229Z" transform="translate(-11 -11)"/>
  <path d="M174,116l-4.6-8L124.86,30.87,80.33,108,76,115.5l-.29.5H76v90h98V116h0ZM125,47.66l34.41,59.6H90.57ZM165,197H85V117h80Z" transform="translate(-11 -11)"/>
 </symbol>
</svg>

